<svg aria-hidden="true" style="position: absolute; width: 0; height: 0; overflow: hidden;" version="1.1" xmlns="http://www.w3.org/2000/svg" xmlns:xlink="http://www.w3.org/1999/xlink">
<defs>
<symbol id="icon-replay_30" viewBox="0 0 24 24">
<title>replay_30</title>
<path d="M13.406 15.188q0 0.328 0.516 0.328 0.188 0 0.281-0.094l0.188-0.234q0.094-0.188 0.094-0.281v-2.016q0-0.047-0.047-0.141t-0.047-0.141q0-0.094-0.188-0.211t-0.281-0.117q-0.188 0-0.328 0.141l-0.188 0.188q-0.094 0.188-0.094 0.281v2.016q0.094 0.188 0.094 0.281zM15.281 14.203q0 0.609-0.094 0.797l-0.281 0.609q-0.328 0.281-0.516 0.281-0.094 0-0.305 0.047t-0.305 0.047q-0.328 0-1.078-0.375-0.094-0.047-0.281-0.609-0.141-0.422-0.141-0.797v-0.703q0-0.516 0.141-0.797l0.281-0.609q0.328-0.281 0.516-0.281 0.094 0 0.281-0.047t0.281-0.047q0.422 0 0.609 0.094 0.094 0.047 0.258 0.141t0.258 0.141 0.281 0.609q0.094 0.281 0.094 0.797v0.703zM9.984 13.5q0.703 0 0.703-0.609v-0.188q-0.094-0.094-0.094-0.188t-0.188-0.094h-0.516q-0.094 0.094-0.188 0.094t-0.094 0.188v0.188h-1.031q0-0.375 0.258-0.727t0.586-0.352q0.047 0 0.234-0.047t0.234-0.047q0.563 0 1.125 0.281 0.375 0.188 0.375 0.891v0.328q-0.094 0.188-0.094 0.281 0 0.188-0.188 0.188-0.094 0-0.328 0.234 0.422 0.234 0.516 0.375 0.188 0.375 0.188 0.609 0 0.422-0.094 0.516-0.047 0.047-0.141 0.188t-0.141 0.188q-0.188 0.188-0.516 0.188-0.094 0-0.305 0.047t-0.305 0.047q-0.375 0-0.469-0.094-0.047-0.047-0.234-0.094t-0.281-0.094q-0.422-0.234-0.422-0.984h0.844v0.188q0.094 0.094 0.094 0.188t0.188 0.094h0.516q0.094-0.094 0.188-0.094t0.094-0.188v-0.516q-0.094-0.094-0.094-0.188t-0.188-0.094h-0.609v-0.703h0.375zM12 5.016q3.328 0 5.672 2.344t2.344 5.625q0 3.328-2.367 5.672t-5.648 2.344-5.648-2.344-2.367-5.672h2.016q0 2.484 1.781 4.242t4.219 1.758 4.219-1.758 1.781-4.242-1.781-4.242-4.219-1.758v4.031l-5.016-5.016 5.016-5.016v4.031z"></path>
</symbol>
<symbol id="icon-chevron-down" viewBox="0 0 24 24">
<title>chevron-down</title>
<path d="M5.293 9.707l6 6c0.391 0.391 1.024 0.391 1.414 0l6-6c0.391-0.391 0.391-1.024 0-1.414s-1.024-0.391-1.414 0l-5.293 5.293-5.293-5.293c-0.391-0.391-1.024-0.391-1.414 0s-0.391 1.024 0 1.414z"></path>
</symbol>
<symbol id="icon-chevron-left" viewBox="0 0 24 24">
<title>chevron-left</title>
<path d="M15.707 17.293l-5.293-5.293 5.293-5.293c0.391-0.391 0.391-1.024 0-1.414s-1.024-0.391-1.414 0l-6 6c-0.391 0.391-0.391 1.024 0 1.414l6 6c0.391 0.391 1.024 0.391 1.414 0s0.391-1.024 0-1.414z"></path>
</symbol>
<symbol id="icon-chevron-right" viewBox="0 0 24 24">
<title>chevron-right</title>
<path d="M9.707 18.707l6-6c0.391-0.391 0.391-1.024 0-1.414l-6-6c-0.391-0.391-1.024-0.391-1.414 0s-0.391 1.024 0 1.414l5.293 5.293-5.293 5.293c-0.391 0.391-0.391 1.024 0 1.414s1.024 0.391 1.414 0z"></path>
</symbol>
<symbol id="icon-chevron-up" viewBox="0 0 24 24">
<title>chevron-up</title>
<path d="M18.707 14.293l-6-6c-0.391-0.391-1.024-0.391-1.414 0l-6 6c-0.391 0.391-0.391 1.024 0 1.414s1.024 0.391 1.414 0l5.293-5.293 5.293 5.293c0.391 0.391 1.024 0.391 1.414 0s0.391-1.024 0-1.414z"></path>
</symbol>
<symbol id="icon-user" viewBox="0 0 24 24">
<title>user</title>
<path d="M21 21v-2c0-1.38-0.561-2.632-1.464-3.536s-2.156-1.464-3.536-1.464h-8c-1.38 0-2.632 0.561-3.536 1.464s-1.464 2.156-1.464 3.536v2c0 0.552 0.448 1 1 1s1-0.448 1-1v-2c0-0.829 0.335-1.577 0.879-2.121s1.292-0.879 2.121-0.879h8c0.829 0 1.577 0.335 2.121 0.879s0.879 1.292 0.879 2.121v2c0 0.552 0.448 1 1 1s1-0.448 1-1zM17 7c0-1.38-0.561-2.632-1.464-3.536s-2.156-1.464-3.536-1.464-2.632 0.561-3.536 1.464-1.464 2.156-1.464 3.536 0.561 2.632 1.464 3.536 2.156 1.464 3.536 1.464 2.632-0.561 3.536-1.464 1.464-2.156 1.464-3.536zM15 7c0 0.829-0.335 1.577-0.879 2.121s-1.292 0.879-2.121 0.879-1.577-0.335-2.121-0.879-0.879-1.292-0.879-2.121 0.335-1.577 0.879-2.121 1.292-0.879 2.121-0.879 1.577 0.335 2.121 0.879 0.879 1.292 0.879 2.121z"></path>
</symbol>
<symbol id="icon-number" viewBox="0 0 32 32">
<title>number</title>
<path d="M16 3c-7.18 0-13 5.82-13 13s5.82 13 13 13 13-5.82 13-13-5.82-13-13-13zM16 27c-6.075 0-11-4.925-11-11s4.925-11 11-11 11 4.925 11 11-4.925 11-11 11zM12.744 13.291h4.371c-0.902 1.136-1.623 2.425-2.162 3.867-0.54 1.441-0.826 2.856-0.857 4.243h1.852c-0.005-0.885 0.14-1.889 0.434-3.012 0.293-1.124 0.721-2.185 1.28-3.184 0.56-0.998 1.11-1.764 1.653-2.297v-1.398h-6.57v1.781z"></path>
</symbol>
<symbol id="icon-location2" viewBox="0 0 32 32">
<title>location2</title>
<path d="M16 0c-5.523 0-10 4.477-10 10 0 10 10 22 10 22s10-12 10-22c0-5.523-4.477-10-10-10zM16 16.125c-3.383 0-6.125-2.742-6.125-6.125s2.742-6.125 6.125-6.125 6.125 2.742 6.125 6.125-2.742 6.125-6.125 6.125zM12.125 10c0-2.14 1.735-3.875 3.875-3.875s3.875 1.735 3.875 3.875c0 2.14-1.735 3.875-3.875 3.875s-3.875-1.735-3.875-3.875z"></path>
</symbol>
<symbol id="icon-chevron-right" viewBox="0 0 32 32">
<title>chevron-right</title>
<path d="M12.943 24.943l8-8c0.521-0.521 0.521-1.365 0-1.885l-8-8c-0.521-0.521-1.365-0.521-1.885 0s-0.521 1.365 0 1.885l7.057 7.057-7.057 7.057c-0.521 0.521-0.521 1.365 0 1.885s1.365 0.521 1.885 0z"></path>
</symbol>
<symbol id="icon-chevron-up" viewBox="0 0 32 32">
<title>chevron-up</title>
<path d="M24.943 19.057l-8-8c-0.521-0.521-1.365-0.521-1.885 0l-8 8c-0.521 0.521-0.521 1.365 0 1.885s1.365 0.521 1.885 0l7.057-7.057 7.057 7.057c0.521 0.521 1.365 0.521 1.885 0s0.521-1.365 0-1.885z"></path>
</symbol>
<symbol id="icon-user" viewBox="0 0 32 32">
<title>user</title>
<path d="M28 28v-2.667c0-1.84-0.748-3.509-1.952-4.715s-2.875-1.952-4.715-1.952h-10.667c-1.84 0-3.509 0.748-4.715 1.952s-1.952 2.875-1.952 4.715v2.667c0 0.736 0.597 1.333 1.333 1.333s1.333-0.597 1.333-1.333v-2.667c0-1.105 0.447-2.103 1.172-2.828s1.723-1.172 2.828-1.172h10.667c1.105 0 2.103 0.447 2.828 1.172s1.172 1.723 1.172 2.828v2.667c0 0.736 0.597 1.333 1.333 1.333s1.333-0.597 1.333-1.333zM22.667 9.333c0-1.84-0.748-3.509-1.952-4.715s-2.875-1.952-4.715-1.952-3.509 0.748-4.715 1.952-1.952 2.875-1.952 4.715 0.748 3.509 1.952 4.715 2.875 1.952 4.715 1.952 3.509-0.748 4.715-1.952 1.952-2.875 1.952-4.715zM20 9.333c0 1.105-0.447 2.103-1.172 2.828s-1.723 1.172-2.828 1.172-2.103-0.447-2.828-1.172-1.172-1.723-1.172-2.828 0.447-2.103 1.172-2.828 1.723-1.172 2.828-1.172 2.103 0.447 2.828 1.172 1.172 1.723 1.172 2.828z"></path>
</symbol>
<symbol id="icon-cart" viewBox="0 0 32 32">
<title>cart</title>
<path d="M12 29c0 1.657-1.343 3-3 3s-3-1.343-3-3c0-1.657 1.343-3 3-3s3 1.343 3 3z"></path>
<path d="M32 29c0 1.657-1.343 3-3 3s-3-1.343-3-3c0-1.657 1.343-3 3-3s3 1.343 3 3z"></path>
<path d="M32 16v-12h-24c0-1.105-0.895-2-2-2h-6v2h4l1.502 12.877c-0.915 0.733-1.502 1.859-1.502 3.123 0 2.209 1.791 4 4 4h24v-2h-24c-1.105 0-2-0.895-2-2 0-0.007 0-0.014 0-0.020l26-3.98z"></path>
</symbol>
<symbol id="icon-mobile" viewBox="0 0 32 32">
<title>mobile</title>
<path d="M23 0h-14c-1.65 0-3 1.35-3 3v26c0 1.65 1.35 3 3 3h14c1.65 0 3-1.35 3-3v-26c0-1.65-1.35-3-3-3zM12 1.5h8v1h-8v-1zM16 30c-1.105 0-2-0.895-2-2s0.895-2 2-2 2 0.895 2 2-0.895 2-2 2zM24 24h-16v-20h16v20z"></path>
</symbol>
<symbol id="icon-search" viewBox="0 0 32 32">
<title>search</title>
<path d="M31.008 27.231l-7.58-6.447c-0.784-0.705-1.622-1.029-2.299-0.998 1.789-2.096 2.87-4.815 2.87-7.787 0-6.627-5.373-12-12-12s-12 5.373-12 12 5.373 12 12 12c2.972 0 5.691-1.081 7.787-2.87-0.031 0.677 0.293 1.515 0.998 2.299l6.447 7.58c1.104 1.226 2.907 1.33 4.007 0.23s0.997-2.903-0.23-4.007zM12 20c-4.418 0-8-3.582-8-8s3.582-8 8-8 8 3.582 8 8-3.582 8-8 8z"></path>
</symbol>
<symbol id="icon-wrench" viewBox="0 0 32 32">
<title>wrench</title>
<path d="M31.342 25.559l-14.392-12.336c0.67-1.259 1.051-2.696 1.051-4.222 0-4.971-4.029-9-9-9-0.909 0-1.787 0.135-2.614 0.386l5.2 5.2c0.778 0.778 0.778 2.051 0 2.828l-3.172 3.172c-0.778 0.778-2.051 0.778-2.828 0l-5.2-5.2c-0.251 0.827-0.386 1.705-0.386 2.614 0 4.971 4.029 9 9 9 1.526 0 2.963-0.38 4.222-1.051l12.336 14.392c0.716 0.835 1.938 0.882 2.716 0.104l3.172-3.172c0.778-0.778 0.731-2-0.104-2.716z"></path>
</symbol>
<symbol id="icon-power" viewBox="0 0 32 32">
<title>power</title>
<path d="M12 0l-12 16h12l-8 16 28-20h-16l12-12z"></path>
</symbol>
<symbol id="icon-headphones" viewBox="0 0 32 32">
<title>headphones</title>
<path d="M9 18h-2v14h2c0.55 0 1-0.45 1-1v-12c0-0.55-0.45-1-1-1z"></path>
<path d="M23 18c-0.55 0-1 0.45-1 1v12c0 0.55 0.45 1 1 1h2v-14h-2z"></path>
<path d="M32 16c0-8.837-7.163-16-16-16s-16 7.163-16 16c0 1.919 0.338 3.759 0.958 5.464-0.609 1.038-0.958 2.246-0.958 3.536 0 3.526 2.608 6.443 6 6.929v-13.857c-0.997 0.143-1.927 0.495-2.742 1.012-0.168-0.835-0.258-1.699-0.258-2.584 0-7.18 5.82-13 13-13s13 5.82 13 13c0 0.885-0.088 1.749-0.257 2.584-0.816-0.517-1.745-0.87-2.743-1.013v13.858c3.392-0.485 6-3.402 6-6.929 0-1.29-0.349-2.498-0.958-3.536 0.62-1.705 0.958-3.545 0.958-5.465z"></path>
</symbol>
<symbol id="icon-gift" viewBox="0 0 32 32">
<title>gift</title>
<path d="M24.11 10c0.566-0.402 1.11-0.851 1.608-1.348 1.044-1.044 1.742-2.328 1.966-3.616 0.246-1.412-0.115-2.723-0.988-3.597-0.697-0.697-1.641-1.065-2.73-1.065-1.551 0-3.185 0.744-4.483 2.043-2.077 2.077-3.288 4.945-3.94 6.991-0.482-2.056-1.444-4.833-3.313-6.702-1.003-1.003-2.285-1.518-3.495-1.518-0.989 0-1.931 0.344-2.633 1.046-1.562 1.562-1.351 4.306 0.471 6.128 0.65 0.65 1.409 1.189 2.21 1.638h-6.782v8h2v14h24v-14h2v-8h-5.89zM21.073 4.007c0.866-0.866 1.948-1.384 2.892-1.384 0.334 0 0.803 0.070 1.139 0.406 0.813 0.813 0.357 2.697-0.977 4.031-1.373 1.373-3.221 2.318-4.826 2.939h-1.584c0.58-1.798 1.627-4.264 3.356-5.993zM7.31 5.028c-0.022-0.285-0.002-0.82 0.381-1.203 0.32-0.32 0.743-0.387 1.042-0.387v0c0.664 0 1.358 0.313 1.904 0.859 1.059 1.058 1.93 2.743 2.521 4.871 0.016 0.057 0.031 0.115 0.047 0.171-0.057-0.015-0.114-0.031-0.171-0.047-2.128-0.591-3.813-1.462-4.871-2.521-0.495-0.495-0.805-1.13-0.853-1.743zM14 30h-8v-13h8v13zM14 16h-10v-4h10v4zM26 30h-8v-13h8v13zM28 16h-10v-4h10v4z"></path>
</symbol>
<symbol id="icon-arrow-up2" viewBox="0 0 32 32">
<title>arrow-up2</title>
<path d="M27.414 12.586l-10-10c-0.781-0.781-2.047-0.781-2.828 0l-10 10c-0.781 0.781-0.781 2.047 0 2.828s2.047 0.781 2.828 0l6.586-6.586v19.172c0 1.105 0.895 2 2 2s2-0.895 2-2v-19.172l6.586 6.586c0.39 0.39 0.902 0.586 1.414 0.586s1.024-0.195 1.414-0.586c0.781-0.781 0.781-2.047 0-2.828z"></path>
</symbol>
</defs>
</svg>
